<?xml version="1.0" encoding="UTF-8"?>
<svg id="Layer_1" data-name="Layer 1" xmlns="http://www.w3.org/2000/svg" viewBox="0 0 250 299.65">
  <defs>
    <style>
      .cls-1, .cls-2, .cls-3 {
        fill: #231f20;
      }

      .cls-4 {
        fill: #ce5d1b;
      }

      .cls-5 {
        fill: #14a8e0;
      }

      .cls-6 {
        fill: #fff;
      }

      .cls-7 {
        fill: #f8bad1;
      }

      .cls-8 {
        font-family: HelveticaNeue, 'Helvetica Neue';
        font-size: 72.53px;
        isolation: isolate;
      }

      .cls-9 {
        fill: #353535;
      }

      .cls-10 {
        fill: #f7b119;
      }

      .cls-2 {
        letter-spacing: 0em;
      }

      .cls-11 {
        fill: #ef5097;
      }

      .cls-12 {
        fill: #fdd10c;
      }

      .cls-13 {
        fill: #009b8f;
      }

      .cls-3 {
        letter-spacing: -.09em;
      }

      .cls-14 {
        fill: #1dbbb1;
      }
    </style>
  </defs>
  <path class="cls-6" d="M227.52,107.15c-.84-18.73-5.63-36.87-15.45-52.85-.67-1.09-2.83-3.27-3.07-4.27-.18-.77.28-4.01.22-5.34-.54-12.3-2.36-24.85-8.74-35.57-3.55-5.95-6.77-7.9-13.81-7.46-10.1.63-20.48,5.67-29.27,10.3-22.96-8.55-48.69-7.77-71.79-.19C76.34,6.89,58.89-1.14,48.56,2.71c-4.56,1.7-7.2,8.52-8.81,12.79-4.11,10.9-5.97,22.58-5.67,34.24-13.54,17.85-19.04,40.49-19.7,62.7-.91,30.63,11.93,60.04,38.67,75.97.33.2.73-.19.52.77-1.24-.48-3.08-.11-4.47.1-4.48.66-17.49,2.66-20.43,5.57-3.42,3.4,2.02,5.64,4.85,6.51,8.14,2.49,18.73,3.91,27.24,4.99,37.45,4.74,74.11,4.89,111.65,1.14,8-.8,38.28-4.1,43.41-8.59,3.11-2.72.26-4.42-2.44-5.64-6.74-3.04-16.02-3.28-23.35-4.11-.35-.04-1.38-.16-1.31-.7,2.11-.57,4.27-2.31,6.03-3.68s6.6-6.48,7.9-7.11c1.18-.57,3.67-.6,5.19-1.04,19.54-5.63,38.9-29.11,40.2-49.52.83-13.06-6.68-23.03-20.5-19.95Z"/>
  <g>
    <path class="cls-1" d="M226.93,105.54c-.84-18.73-5.63-36.87-15.45-52.85-.67-1.09-2.83-3.27-3.07-4.27-.18-.77.28-4.01.22-5.34-.54-12.3-2.36-24.85-8.74-35.57-3.55-5.95-6.77-7.9-13.81-7.46-10.1.63-20.48,5.67-29.27,10.3-22.96-8.55-48.69-7.77-71.79-.19C75.75,5.29,58.3-2.75,47.97,1.11c-4.56,1.7-7.2,8.52-8.81,12.79-4.11,10.9-5.97,22.58-5.67,34.24-13.54,17.85-19.04,40.49-19.7,62.7-.91,30.63,11.93,60.04,38.67,75.97.25.15.51.01.55.31.1.06.19.14.28.21.19.08.38.16.55.26l133.68-.03c.24-.13.47-.26.7-.39-.08-.08-.13-.18-.11-.31,2.11-.57,4.27-2.31,6.03-3.68,1.8-1.39,6.6-6.48,7.9-7.11,1.18-.57,3.67-.6,5.19-1.04,19.54-5.63,38.9-29.11,40.2-49.52.83-13.06-6.68-23.03-20.5-19.95Z"/>
    <path class="cls-1" d="M120.59,39.73c-58.68,0-106.25,37.38-106.25,83.49,0,3.64.33,7.21.91,10.72.54,1.59,1.01,3.63,1.46,5.83.65,1.73,1.25,3.9,1.79,6.47.08.32.19.52.27.86,13.08,34.47,53.7,59.61,101.81,59.61s87.51-24.4,101.2-58.08c1.29-4.22,2.57-8.62,3.8-13.64.13-.52.26-.93.39-1.41.07-.39.14-.84.22-1.22.42-3,.65-6.05.65-9.14,0-46.11-47.57-83.49-106.25-83.49Z"/>
  </g>
  <path class="cls-6" d="M222.66,35.46c-5.79,1.19-5.81,11.03,1.01,10.54,7.63-.55,6.46-12.08-1.01-10.54Z"/>
  <path class="cls-6" d="M18.31,35.83c-6.52,1.06-4.86,10.79,1.33,10.51,7.07-.32,7.1-11.88-1.33-10.51Z"/>
  <path class="cls-6" d="M9.43,55.35c-2.1.12-3.31,1.42-2.66,3.57.54,1.82,6.82,2.42,8.79,2.93,1.63.42,4.22,2.04,5.54,1.32,2.41-1.32,2.32-3.61-.03-4.99-2.08-1.22-9.26-2.96-11.63-2.82Z"/>
  <path class="cls-6" d="M220.62,63.14c1.07.66,5.04-1.29,6.45-1.66,1.82-.48,7.65-1.21,8.31-2.67,1.26-2.77-1.5-3.4-3.65-3.29-1.82.09-11.31,2.36-11.85,3.9-.43,1.21.22,2.64.73,3.72Z"/>
  <path class="cls-6" d="M10.64,65.14c-5.2.57-3.82,4.53,1,5.02,1.12.11,6.45.17,7.14-.17.6-.3,1.13-1.73.94-2.4-.6-2.16-7.13-2.66-9.08-2.44Z"/>
  <path class="cls-6" d="M222.84,69.34c.88,1.02,8.1,1.07,9.54.75,1.23-.28,2.69-2.07,2.4-3.33-.63-2.69-8.76-1.65-10.72-.97-1.37.48-2.13,2.5-1.22,3.55Z"/>
  <path class="cls-6" d="M6.43,79.2c.57.47,1.11.47,1.8.41,1.4-.14,8.13-2.05,9.45-2.67,1.8-.84,3.92-3.57,1.46-4.77-1.4-.68-9.53,1.44-11.24,2.32-1.87.96-3.67,2.91-1.48,4.71Z"/>
  <path class="cls-6" d="M223.54,72.05c-1.13,1.99.24,4.05,2.14,4.89.97.43,7.8,2.43,8.61,2.41,2.08-.03,3.92-2.69,2.36-4.24s-11.58-4.04-13.12-3.07Z"/>
  <path d="M78.83,14.14c-7.44-3.61-16.29-7.43-24.7-7.71-1.4-.05-5.29-.22-4.38,1.84,9.24.61,18.02,3.97,26.4,7.63l2.68-1.76Z"/>
  <path d="M193.46,8.64c-.95-3.37-5.83-2.12-8.5-1.72-4.43.65-9.83,2.32-14.03,3.92-2.42.92-5.2,1.9-7.13,3.66,1.82-.31,2.42,1.16,3.79,1.81,3.6-2.63,8.73-4.41,13.05-5.65s8.47-2.13,12.81-2.02Z"/>
  <path d="M196.99,42.82C149.28-6.47,59.43,2.75,29.7,66.62c-16.13,34.65-14.36,83.57,16.17,109.93.65.56,5.04,3.84,5.5,3.47-5.25-10.01-.93-24.1,8.31-30.32,22.45-15.11,46.9,12.87,36.26,35.16-1.58,3.3-3.71,5.18-6.25,7.58-.31.29-.33.25-.24.76,5.86,1.61,12,2.97,18.11,3.31,11.09.62,25.28.41,36.21-1.17,3.39-.49,6.74-1.31,10.13-1.77-10.15-7.51-11.13-20.46-6.97-31.68,2.67-7.21,10.21-14.31,17.87-15.82,19.59-3.86,33.81,16.27,26.45,33.96,6.45-4.07,11.96-9.84,16.27-16.14,22.99-33.62,17.79-91.8-10.54-121.06Z"/>
  <path d="M197.48,36.1c.04-3.66-.59-7.83-1.65-11.35-.46-1.52-2.45-6.37-4.3-6.17-2.79.31-6.69,3.25-9.07,4.71l15.01,12.81Z"/>
  <path d="M59.79,24.38c.14-.57-.1-.59-.39-.89-1.4-1.43-7.28-4.98-9.13-4.07-2.81,1.38-4.57,12.85-4.39,15.95,3.38-2.61,6.38-5.74,9.71-8.41,1.19-.95,2.76-2.34,4.2-2.58Z"/>
  <path d="M242.16,128.75c2.49-8.6-3.57-20.93-13.86-16.06l-.41,5.08,1.46-.37c.35,4.71,3.54,8.62,8.01,4.89l1.51-3.06c.29,1.38.93,2.67,1.29,4.02.17.63.81,6.36,2.01,5.5Z"/>
  <path d="M168.48,150.47c-20.92,1.56-26.04,35.93-6.08,41.76,5.87,1.71,14.69-1.2,18.99-5.41,12.13-11.91,5.65-37.73-12.91-36.34Z"/>
  <path d="M69.59,150.82c-5.94.8-12.29,6.27-14.02,11.98-1.68,5.57-.65,10.42.26,15.83,1.51,8.93,13.5,15.28,21.99,13.74,24.35-4.4,17.19-45-8.23-41.56Z"/>
  <path d="M18.31,35.83c8.43-1.37,8.4,10.19,1.33,10.51-6.19.28-7.84-9.45-1.33-10.51Z"/>
  <path d="M222.66,35.46c7.47-1.54,8.64,9.99,1.01,10.54-6.82.49-6.8-9.35-1.01-10.54Z"/>
  <path d="M9.43,55.35c2.37-.13,9.55,1.6,11.63,2.82,2.35,1.38,2.44,3.67.03,4.99-1.31.72-3.91-.9-5.54-1.32-1.97-.51-8.25-1.11-8.79-2.93-.64-2.15.56-3.45,2.66-3.57Z"/>
  <path d="M220.62,63.14c-.51-1.09-1.16-2.51-.73-3.72.54-1.54,10.03-3.81,11.85-3.9,2.15-.11,4.9.52,3.65,3.29-.66,1.46-6.49,2.19-8.31,2.67-1.42.37-5.38,2.32-6.45,1.66Z"/>
  <path d="M6.43,79.2c-2.19-1.81-.4-3.76,1.48-4.71,1.71-.87,9.83-3,11.24-2.32,2.46,1.19.34,3.93-1.46,4.77-1.32.62-8.05,2.53-9.45,2.67-.69.07-1.24.06-1.8-.41Z"/>
  <path d="M223.54,72.05c1.54-.97,11.62,1.58,13.12,3.07s-.29,4.2-2.36,4.24c-.82.01-7.65-1.99-8.61-2.41-1.9-.84-3.27-2.9-2.14-4.89Z"/>
  <path d="M222.84,69.34c-.91-1.05-.15-3.07,1.22-3.55,1.96-.69,10.09-1.72,10.72.97.29,1.26-1.17,3.05-2.4,3.33-1.44.32-8.65.27-9.54-.75Z"/>
  <path d="M10.64,65.14c1.95-.21,8.48.28,9.08,2.44.19.67-.34,2.1-.94,2.4-.69.34-6.02.29-7.14.17-4.81-.48-6.2-4.44-1-5.02Z"/>
  <path class="cls-6" d="M196.99,42.82c28.33,29.27,33.53,87.44,10.54,121.06-4.31,6.3-9.82,12.07-16.27,16.14,7.35-17.69-6.86-37.81-26.45-33.96-7.66,1.51-15.19,8.61-17.87,15.82-4.16,11.22-3.19,24.17,6.97,31.68-3.39.47-6.74,1.28-10.13,1.77-10.93,1.59-25.12,1.79-36.21,1.17-6.11-.34-12.25-1.71-18.11-3.31-.1-.51-.07-.47.24-.76,2.54-2.41,4.67-4.28,6.25-7.58,10.64-22.3-13.81-50.27-36.26-35.16-9.24,6.22-13.56,20.31-8.31,30.32-.46.37-4.85-2.91-5.5-3.47-30.54-26.36-32.3-75.28-16.17-109.93C59.43,2.75,149.28-6.47,196.99,42.82ZM116.92,15.23c-36.01.56-69.52,22.56-85.59,54.49-4.38,8.71-7.04,17.7-9.26,27.17,8.05-2.72,14.26-8.94,21.49-13.12,2.1-1.21,4.56-1.96,6.82-3.43,2.59-1.69,4.73-4.05,7.5-5.5-.64-6.62.08-13.26,3.44-19.08,2.32-4.01,6.31-7.69,10.56-9.58,6.51-2.9,14.93-3.1,21.05.82,2.33-2.4,5.62-3.91,8.05-6.14,1.66-1.53,4.2-4.59,5.67-6.42,4.44-5.51,8.57-12.3,10.26-19.22ZM219.82,97.26c-4.64-27.04-20.94-52.36-44.34-66.8-14.47-8.94-31.55-14.81-48.68-15.22,2.06,10.92,9.73,20.64,18.56,27.03.85.62,4.92,3.51,5.52,3.66,1.39.35,4.21-1.33,5.85-1.67,14.8-3.05,28.53,9.63,29.02,24.27.05,1.56-.97,5.73-.55,6.4.21.34,5.58,3.96,6.44,4.55,2.87,1.94,6.24,3.65,9.09,5.56,6.25,4.19,12.01,9.35,19.07,12.23ZM95.18,83.22c17.06-17.72-2.8-44.12-23.05-32.02-12.25,7.32-14.77,26.67-2.05,34.87,7.06,4.55,19.28,3.2,25.11-2.84ZM158.95,48.29c-6.97.84-14.15,6.27-16.3,13-7.98,24.92,27.52,39.25,37.32,15.71,5.91-14.21-5.6-30.57-21.02-28.71ZM120.49,63.66c-5.05.81-1.67,3.38-1.73,4.82-.1,2.23-3.14,2.38-4.77,1.87-1.4-2.02-.89-5.54-4.41-4.42-2.99.96-2.16,4.99-.71,6.97,3.11,4.25,8.97,3.97,12.64.62,3.84,4.28,12.62,3.45,14.55-2.36.89-2.68-1.11-6.61-3.76-4.86-.79.52-.38,4.01-2.9,4.8-1.4.44-4.34-.74-4.98-2.05-.45-.9,2.11-2.07.21-4.21-1-1.14-2.7-1.42-4.13-1.19ZM184.93,81.96c-2.39.72-3.1,4.51.24,5.49,5.56,1.62,4.94-7.05-.24-5.49ZM52.38,82.7c-1.07-1.07-5.74.43-6.33,1.75-1.17,2.61,4.62,3.07,6.06,2.37,1.07-.52.95-3.45.28-4.12ZM54.39,82.7c-2.99,5.97,6.25,6.56,5.41,1.58-.37-2.22-3.74-2.57-5.41-1.58ZM190.63,86.54c1.43,1.78,7.23.33,6.81-1.87-.27-1.39-5.03-2.44-6.3-2s-1.14,3.08-.51,3.87ZM185.78,131.32l-.53,1.01c-7.16-.22-13.91-1.48-19.74-5.83-17.36-12.98-2.11-33.25,16.85-22.34,1.43.83,8.72,7.71,8.11,2.91-.77-6.09-11.27-10.23-16.59-10.55-16.59-1-26.74,13.62-17.7,28.32,5.82,9.47,20.34,14.71,30.28,8.63l-.68-2.15ZM63.64,132.42c-1.69.16-3.74,0-5.49,0-.1,0-.23-.33-.37-.32-1.26.62.36,2,1.15,2.47,9.43,5.61,24.94-2.4,29.24-11.67,7.58-16.34-4.82-27.87-21.2-25.96-4.1.48-12.77,5.2-13.55,9.55-.23,1.3.69,2.8,2.08,2.44.27-.07,3.41-2.91,4.24-3.48,14.59-9.94,32.51.75,22.46,16.97-3.4,5.48-12.29,9.42-18.57,10Z"/>
  <path class="cls-4" d="M69.59,150.82c25.43-3.44,32.58,37.16,8.23,41.56-8.49,1.53-20.49-4.81-21.99-13.74-.91-5.42-1.94-10.26-.26-15.83,1.73-5.71,8.07-11.18,14.02-11.98ZM69.22,155.93c-6.45,1.26-2.19,12.34,3.21,8.71,4.06-2.73,1.53-9.63-3.21-8.71ZM80.19,158.13c-3.75,1.12-2.43,9.52,3.06,7.81,4.6-1.43,2.06-9.34-3.06-7.81ZM60.79,164.34c-.68.12-2.08,1.37-2.47,1.95-2.7,4.1,4.56,9.86,7.03,4.84,1.63-3.3-.82-7.46-4.57-6.8ZM75.09,167.3c-7.69.29-12.31,10.69-5.02,15.45,6.17,4.03,19.18-4.88,11.71-12.81-1.47-1.56-4.55-2.72-6.69-2.64Z"/>
  <path class="cls-4" d="M168.48,150.47c18.55-1.39,25.03,24.43,12.91,36.34-4.29,4.22-13.12,7.13-18.99,5.41-19.96-5.83-14.84-40.19,6.08-41.76ZM172.87,155.92c-4.92.56-5.99,8.31-1.17,9.07,6.55,1.04,7.08-9.74,1.17-9.07ZM161.48,157.46c-7.05.06-3.83,12.17,2.13,7.55,3.09-2.39,1.86-7.58-2.13-7.55ZM179.45,165.1c-4.7,1.21-2.55,10.85,3.15,7.17,3.96-2.56,2.07-8.52-3.15-7.17ZM164.8,167.3c-6.31,1.01-9.12,8.9-4.31,13.29,3.82,3.49,10.5,4.55,13.92,0,4.91-6.55-2.11-14.48-9.62-13.28Z"/>
  <path class="cls-4" d="M242.16,128.75c-1.19.86-1.84-4.86-2.01-5.5-.36-1.36-1-2.64-1.29-4.02l-1.51,3.06c-4.46,3.73-7.66-.19-8.01-4.89l-1.46.37.41-5.08c10.29-4.87,16.36,7.46,13.86,16.06Z"/>
  <path class="cls-6" d="M197.48,36.1l-15.01-12.81c2.37-1.46,6.27-4.4,9.07-4.71,1.85-.2,3.84,4.65,4.3,6.17,1.06,3.52,1.68,7.69,1.65,11.35Z"/>
  <path class="cls-6" d="M59.79,24.38c-1.45.24-3.01,1.62-4.2,2.58-3.33,2.67-6.33,5.8-9.71,8.41-.17-3.1,1.59-14.57,4.39-15.95,1.85-.91,7.73,2.64,9.13,4.07.3.3.53.32.39.89Z"/>
  <path class="cls-4" d="M193.46,8.64c-4.34-.11-8.68.84-12.81,2.02s-9.46,3.02-13.05,5.65c-1.37-.65-1.97-2.12-3.79-1.81,1.94-1.76,4.71-2.74,7.13-3.66,4.2-1.6,9.6-3.26,14.03-3.92,2.67-.39,7.54-1.65,8.5,1.72Z"/>
  <path class="cls-4" d="M78.83,14.14l-2.68,1.76c-8.38-3.66-17.16-7.01-26.4-7.63-.91-2.06,2.98-1.89,4.38-1.84,8.41.28,17.26,4.1,24.7,7.71Z"/>
  <path d="M116.92,15.23c-1.7,6.92-5.83,13.71-10.26,19.22-1.47,1.83-4.01,4.89-5.67,6.42-2.43,2.23-5.72,3.74-8.05,6.14-6.12-3.91-14.54-3.71-21.05-.82-4.26,1.89-8.24,5.57-10.56,9.58-3.36,5.83-4.08,12.46-3.44,19.08-2.77,1.44-4.91,3.81-7.5,5.5-2.26,1.47-4.73,2.22-6.82,3.43-7.23,4.18-13.44,10.4-21.49,13.12,2.22-9.47,4.88-18.47,9.26-27.17C47.4,37.79,80.91,15.79,116.92,15.23ZM43.97,73.9c-4.78.56-4.88,6-.2,5.34,5.16-.72,4.36-5.83.2-5.34Z"/>
  <path class="cls-4" d="M219.82,97.26c-7.07-2.88-12.83-8.04-19.07-12.23-2.85-1.91-6.22-3.62-9.09-5.56-.87-.58-6.24-4.21-6.44-4.55-.42-.68.6-4.85.55-6.4-.49-14.64-14.23-27.31-29.02-24.27-1.64.34-4.46,2.02-5.85,1.67-.6-.15-4.67-3.04-5.52-3.66-8.83-6.39-16.5-16.11-18.56-27.03,17.12.41,34.2,6.29,48.68,15.22,23.4,14.45,39.69,39.77,44.34,66.8ZM197.62,78.09c1.68,1.69,6.56,1.21,5.67-1.8-1.13-3.8-9.48-2.02-5.67,1.8Z"/>
  <path d="M158.95,48.29c15.41-1.86,26.93,14.5,21.02,28.71-9.8,23.54-45.3,9.21-37.32-15.71,2.15-6.72,9.33-12.16,16.3-13ZM156.23,55.28c-4.02,3.73-2.14,11.53,3.38,12.29,11.5,1.59,12.06-13.4,3.28-14.27-2.33-.23-4.92.35-6.67,1.98ZM170.11,75.02c-2.9,2.66,1.48,7.88,4.51,4.32,2.73-3.2-2.09-6.54-4.51-4.32ZM155.99,79.93c3.13-3.42-2.43-7.63-5.18-3.91-2.03,2.75,2.83,6.48,5.18,3.91Z"/>
  <path d="M95.18,83.22c-5.82,6.05-18.05,7.4-25.11,2.84-12.71-8.2-10.2-27.55,2.05-34.87,20.25-12.1,40.12,14.3,23.05,32.02ZM79.84,53.4c-3.7.68-5.95,5.23-5.23,8.73,1.36,6.57,11.47,7.58,14.08,1.59,2.61-5.96-2.57-11.47-8.85-10.32ZM89.36,74.26c-2.72.35-4.12,4.56-1.14,6.11,4.82,2.5,6.61-6.81,1.14-6.11ZM70.68,74.64c-5.61,1.11-.3,9.15,3.03,4.87,1.8-2.31-.26-5.42-3.03-4.87Z"/>
  <path d="M185.78,131.32l.68,2.15c-9.94,6.07-24.46.84-30.28-8.63-9.03-14.71,1.11-29.32,17.7-28.32,5.32.32,15.82,4.46,16.59,10.55.61,4.81-6.68-2.08-8.11-2.91-18.95-10.91-34.2,9.36-16.85,22.34,5.83,4.36,12.59,5.61,19.74,5.83l.53-1.01Z"/>
  <path d="M63.64,132.42c6.27-.58,15.17-4.51,18.57-10,10.05-16.22-7.87-26.91-22.46-16.97-.83.57-3.97,3.41-4.24,3.48-1.4.36-2.32-1.14-2.08-2.44.78-4.36,9.45-9.07,13.55-9.55,16.38-1.91,28.77,9.62,21.2,25.96-4.3,9.27-19.81,17.28-29.24,11.67-.79-.47-2.42-1.85-1.15-2.47.14,0,.27.32.37.32,1.75,0,3.8.16,5.49,0Z"/>
  <path d="M120.49,63.66c1.43-.23,3.13.05,4.13,1.19,1.9,2.15-.66,3.31-.21,4.21.65,1.31,3.59,2.49,4.98,2.05,2.51-.79,2.1-4.27,2.9-4.8,2.66-1.75,4.65,2.18,3.76,4.86-1.92,5.81-10.7,6.64-14.55,2.36-3.66,3.35-9.53,3.62-12.64-.62-1.45-1.98-2.28-6.02.71-6.97,3.52-1.12,3.01,2.4,4.41,4.42,1.63.51,4.67.36,4.77-1.87.07-1.45-3.31-4.01,1.73-4.82Z"/>
  <path d="M184.93,81.96c5.17-1.56,5.8,7.11.24,5.49-3.34-.97-2.62-4.77-.24-5.49Z"/>
  <path d="M190.63,86.54c-.63-.78-.7-3.45.51-3.87,1.27-.44,6.03.62,6.3,2,.42,2.19-5.38,3.65-6.81,1.87Z"/>
  <path d="M54.39,82.7c1.67-.99,5.04-.64,5.41,1.58.83,4.98-8.4,4.39-5.41-1.58Z"/>
  <path d="M52.38,82.7c.67.68.79,3.6-.28,4.12-1.44.7-7.22.24-6.06-2.37.59-1.33,5.27-2.83,6.33-1.75Z"/>
  <path d="M75.09,167.3c2.14-.08,5.22,1.08,6.69,2.64,7.47,7.93-5.54,16.84-11.71,12.81-7.29-4.76-2.66-15.16,5.02-15.45Z"/>
  <path d="M69.22,155.93c4.73-.92,7.27,5.99,3.21,8.71-5.4,3.63-9.66-7.46-3.21-8.71Z"/>
  <path d="M60.79,164.34c3.75-.67,6.19,3.5,4.57,6.8-2.48,5.02-9.73-.74-7.03-4.84.38-.58,1.78-1.83,2.47-1.95Z"/>
  <path d="M80.19,158.13c5.12-1.52,7.66,6.38,3.06,7.81-5.49,1.7-6.8-6.7-3.06-7.81Z"/>
  <path d="M164.8,167.3c7.51-1.2,14.53,6.73,9.62,13.28-3.42,4.56-10.1,3.49-13.92,0-4.81-4.39-2.01-12.28,4.31-13.29Z"/>
  <path d="M172.87,155.92c5.91-.68,5.37,10.1-1.17,9.07-4.82-.76-3.75-8.5,1.17-9.07Z"/>
  <path d="M161.48,157.46c3.99-.03,5.22,5.16,2.13,7.55-5.96,4.62-9.18-7.49-2.13-7.55Z"/>
  <path d="M179.45,165.1c5.21-1.35,7.11,4.61,3.15,7.17-5.7,3.68-7.84-5.96-3.15-7.17Z"/>
  <path class="cls-4" d="M43.97,73.9c4.16-.49,4.96,4.62-.2,5.34-4.68.66-4.58-4.78.2-5.34Z"/>
  <path d="M197.62,78.09c-3.81-3.82,4.54-5.61,5.67-1.8.9,3.02-3.98,3.49-5.67,1.8Z"/>
  <path class="cls-6" d="M156.23,55.28c1.75-1.62,4.34-2.2,6.67-1.98,8.78.86,8.22,15.86-3.28,14.27-5.53-.77-7.4-8.56-3.38-12.29Z"/>
  <path class="cls-6" d="M155.99,79.93c-2.35,2.57-7.21-1.16-5.18-3.91,2.75-3.73,8.31.49,5.18,3.91Z"/>
  <path class="cls-6" d="M170.11,75.02c2.42-2.22,7.23,1.12,4.51,4.32-3.03,3.56-7.41-1.66-4.51-4.32Z"/>
  <path class="cls-6" d="M79.84,53.4c6.28-1.15,11.46,4.35,8.85,10.32-2.62,5.99-12.73,4.98-14.08-1.59-.72-3.49,1.53-8.05,5.23-8.73Z"/>
  <path class="cls-6" d="M89.36,74.26c5.47-.71,3.69,8.6-1.14,6.11-2.99-1.55-1.58-5.76,1.14-6.11Z"/>
  <path class="cls-6" d="M70.68,74.64c2.77-.55,4.83,2.56,3.03,4.87-3.33,4.28-8.64-3.76-3.03-4.87Z"/>
  <rect class="cls-6" x="59.32" y="200.78" width="120.15" height="7.48"/>
  <g>
    <text class="cls-8" transform="translate(0 264.77) scale(1.06 1)"><tspan class="cls-4" x="0" y="0">qui</tspan><tspan class="cls-1" x="99.43" y="0">C</tspan><tspan class="cls-3" x="151.79" y="0">A</tspan><tspan class="cls-2" x="192.12" y="0">T</tspan></text>
    <g>
      <circle class="cls-14" cx="208.1" cy="206.88" r="4.95"/>
      <circle class="cls-13" cx="208.1" cy="206.88" r="3.67"/>
    </g>
    <g>
      <circle class="cls-7" cx="220.42" cy="206.88" r="4.95"/>
      <circle class="cls-11" cx="220.42" cy="206.88" r="3.67"/>
    </g>
    <g>
      <circle class="cls-12" cx="245.05" cy="206.88" r="4.95"/>
      <circle class="cls-10" cx="245.05" cy="206.88" r="3.67"/>
    </g>
    <g>
      <circle class="cls-5" cx="232.73" cy="206.88" r="4.95"/>
      <circle class="cls-9" cx="232.73" cy="206.88" r="3.67"/>
    </g>
  </g>
</svg>
